<?xml version="1.0" encoding="utf-8"?>
<!-- Generator: Adobe Illustrator 25.2.3, SVG Export Plug-In . SVG Version: 6.00 Build 0)  -->
<svg version="1.1" xmlns="http://www.w3.org/2000/svg" xmlns:xlink="http://www.w3.org/1999/xlink" x="0px" y="0px"
	 viewBox="0 0 48 48" style="enable-background:new 0 0 48 48;" xml:space="preserve">
<style type="text/css">
	.st0{fill:#FFFFFF;}
	.st1{fill:#4CAF50;}
	.st2{fill:#1E88E5;}
	.st3{fill:#E53935;}
	.st4{fill:#C62828;}
	.st5{fill:#FBC02D;}
</style>
<g id="Слой_2">
	<path class="st0" d="M24,4C12.9,4,4,12.9,4,24s8.9,20,20,20c11.1,0,20-8.9,20-20S35.1,4,24,4z"/>
</g>
<g id="Слой_1">
	<path class="st1" d="M38.8,18.5l-3.5,1.9l-3.5,3.4v11.5h4.9c1.2,0,2.1-0.9,2.1-2.1V18.5z"/>
	<path class="st2" d="M9.2,18.5l2.6,1.2l4.5,4.1v11.5h-4.9c-1.2,0-2.1-0.9-2.1-2.1V18.5z"/>
	<polygon class="st3" points="31.8,15 24,20.8 16.2,15 15.5,19.1 16.2,23.8 24,29.6 31.8,23.8 32.5,19.1 	"/>
	<path class="st4" d="M9.2,15.7v2.8l7.1,5.3V15L14,13.3c-0.5-0.4-1.2-0.6-1.8-0.6l0,0C10.5,12.7,9.2,14.1,9.2,15.7z"/>
	<path class="st5" d="M38.8,15.7v2.8l-7.1,5.3V15l2.2-1.7c0.5-0.4,1.2-0.6,1.8-0.6l0,0C37.5,12.7,38.8,14.1,38.8,15.7z"/>
</g>
</svg>
