<svg id="Слой_1" data-name="Слой 1" xmlns="http://www.w3.org/2000/svg" viewBox="0 0 1838.48 329"><defs><style>.cls-1{fill:#26519f;}.cls-2{fill:#fff;}</style></defs><circle class="cls-1" cx="164.5" cy="164.5" r="164.5"/><path class="cls-1" d="M406.76,628V440.18h122.6q35.35,0,55.78,13.62t20.44,36.08q0,22.47-21.73,34.25,32.77,15.09,32.77,44.91,0,28.73-20.06,43.82T540,628ZM462,513.08h67.37q9.57,0,14.91-4.42t5.34-12.15q0-7.72-5.34-12.15t-14.91-4.42H462Zm0,75.11H538.2q11,0,16.75-5t5.71-13.44q0-8.46-5.71-13.44t-16.75-5H462Z" transform="translate(-48 -355)"/><path class="cls-1" d="M699.83,628H644.6V440.18h55.23v121.5l110.46-121.5h55.23V628H810.29V506.45Z" transform="translate(-48 -355)"/><path class="cls-1" d="M957.19,502.77,902.7,490.25q5.88-26.5,33.32-41.05t64.25-14.54q46,0,74,20.06t28,55.42V628H1047V607.34q-26.88,26.14-76.22,26.14-32.77,0-53.2-15.1t-20.44-42q0-27.61,22.46-45.29T990,513.45H1047q-.75-32.78-46.76-32.77-19.15,0-30.19,6.08T957.19,502.77Zm26.51,86.52q63.32,0,63.33-38.66v-.73H999.16q-46,0-46,22.09,0,8.1,8.28,12.7T983.7,589.29Z" transform="translate(-48 -355)"/><path class="cls-1" d="M1194.67,628h-55.23V440.18h55.23v68.11h106.77V440.18h55.23V628h-55.23V556.16H1194.67Z" transform="translate(-48 -355)"/><path class="cls-1" d="M1452.76,628h-55.23V440.18h55.23v121.5l110.46-121.5h55.22V628h-55.22V506.45Z" transform="translate(-48 -355)"/><path class="cls-1" d="M1714.54,628h-55.23V440.18h55.23v82.47l88.36-82.47h71.8l-96.84,90.21L1886.48,628h-78.06l-93.88-83.21Z" transform="translate(-48 -355)"/><path class="cls-2" d="M172.69,491.59l-51.1-11.74q5.52-24.86,31.25-38.5t60.25-13.64q43.16,0,69.4,18.82t26.25,52V609h-51.8V589.65q-25.2,24.52-71.47,24.52-30.74,0-49.89-14.16t-19.17-39.36q0-25.9,21.07-42.47t65.94-16.58h53.52q-.69-30.72-43.85-30.73-18,0-28.31,5.7T172.69,491.59Zm24.86,81.14q59.38,0,59.39-36.25v-.69H212.06q-43.17,0-43.16,20.71,0,7.61,7.76,11.92T197.55,572.73Z" transform="translate(-48 -355)"/></svg>